<?xml version="1.0" standalone="no"?>
<!DOCTYPE svg PUBLIC "-//W3C//DTD SVG 20010904//EN"
 "http://www.w3.org/TR/2001/REC-SVG-20010904/DTD/svg10.dtd">
<svg version="1.0" xmlns="http://www.w3.org/2000/svg"
 width="436.000000pt" height="436.000000pt" viewBox="0 0 436.000000 436.000000"
 preserveAspectRatio="xMidYMid meet">
<metadata>
Created by potrace 1.11, written by Peter Selinger 2001-2013
</metadata>
<g transform="translate(0.000000,436.000000) scale(0.100000,-0.100000)"
fill="#000000" stroke="none">
<path d="M2975 4159 c-16 -11 -157 -92 -313 -182 -155 -89 -294 -169 -310
-178 -15 -9 -148 -86 -297 -171 -148 -85 -346 -199 -440 -253 -93 -54 -185
-106 -203 -117 -18 -10 -43 -25 -56 -33 -27 -18 10 -36 -439 222 l-339 195
-25 -24 c-40 -37 -133 -163 -133 -179 1 -17 895 -616 913 -611 6 2 119 70 250
150 131 81 270 167 310 191 40 25 196 121 347 214 151 93 439 271 640 395 382
235 400 247 400 267 0 15 -232 135 -258 134 -9 0 -30 -9 -47 -20z"/>
<path d="M3389 3849 c-57 -32 -111 -63 -119 -68 -18 -12 -565 -326 -629 -362
-25 -14 -104 -60 -176 -101 -71 -42 -146 -85 -165 -95 -20 -11 -92 -53 -160
-93 -69 -40 -141 -82 -160 -92 -48 -27 -433 -248 -553 -318 l-98 -57 -147 85
c-81 46 -160 92 -177 102 -156 89 -648 372 -676 389 l-37 22 -57 -115 c-32
-63 -55 -119 -51 -124 3 -5 108 -76 233 -158 126 -81 318 -206 428 -277 314
-204 366 -238 426 -278 l57 -38 68 43 c38 24 570 349 1182 722 760 463 1112
683 1112 695 0 13 -146 148 -186 172 -6 3 -58 -21 -115 -54z"/>
<path d="M3622 3436 c-127 -74 -237 -136 -244 -140 -7 -3 -29 -16 -48 -27 -28
-17 -598 -345 -830 -478 -30 -17 -62 -35 -70 -40 -37 -22 -518 -299 -564 -324
-28 -16 -55 -32 -61 -37 -5 -4 -30 -18 -55 -32 -25 -14 -129 -73 -232 -132
-182 -104 -189 -107 -215 -93 -16 8 -194 110 -398 227 -686 395 -799 459 -801
457 -4 -4 -51 -188 -58 -228 l-6 -36 262 -169 c145 -92 308 -197 363 -232 55
-36 124 -80 153 -98 59 -39 88 -57 332 -214 l175 -113 40 23 c22 13 173 104
335 202 162 98 742 450 1289 781 547 331 999 610 1004 619 8 12 -1 32 -43 89
-29 41 -63 86 -75 101 l-23 27 -230 -133z"/>
<path d="M3950 3079 c-85 -50 -173 -101 -195 -114 -22 -12 -98 -56 -170 -97
-71 -41 -254 -146 -405 -233 -151 -86 -300 -172 -330 -190 -30 -18 -75 -44
-100 -58 -25 -13 -133 -75 -240 -137 -107 -62 -316 -182 -465 -268 -148 -85
-360 -207 -470 -270 -234 -135 -247 -142 -254 -138 -3 2 -231 133 -506 291
-275 158 -561 323 -635 366 -75 43 -143 81 -153 84 -16 7 -17 -4 -17 -126 0
-593 225 -1137 640 -1550 342 -339 764 -546 1255 -614 102 -14 471 -14 565 -1
868 129 1562 729 1799 1556 58 204 74 314 77 560 3 206 0 254 -21 390 -14 98
-48 231 -86 343 -41 120 -117 297 -128 296 -3 0 -76 -41 -161 -90z"/>
</g>
</svg>
